<svg height="512pt" viewBox="0 0 512 512" width="512pt" xmlns="http://www.w3.org/2000/svg">
   <path d="m330.644531 298.453125c10.882813-7.183594 18.234375-20.300781 19.359375-35.035156v-17.472657c12.925782 0 23.402344-10.480468 23.402344-23.40625 0-12.921874-10.476562-23.402343-23.402344-23.402343v-29.296875c0-42.289063-27.667968-78.8125-66.234375-90.820313-38.277343 11.839844-66.085937 47.507813-66.085937 89.675781h-.367188v94.71875c1.125 14.734376 8.3125 27.855469 19.191406 35.039063l47.140626 26.949219zm0 0" fill="#febba0"/>
   <path d="m346.417969 134.171875v-48.507813s-46.488281-17.753906-90.445313-17.753906c-6.898437 0-13.859375.4375-20.691406 1.175782-4.546875 15.078124-6.996094 31.0625-6.996094 47.621093h-.644531v11.964844c8.984375-.332031 18.195313-.511719 27.597656-.511719 33.550781 0 64.828125 2.207032 91.179688 6.011719zm0 0" fill="#24a781"/>
   <path d="m55.425781 413.390625c-5.105469 0-10.015625-.875-14.59375-2.464844v90.574219h29.253907v-90.597656c-4.601563 1.605468-9.53125 2.488281-14.660157 2.488281zm0 0" fill="#132728"/>
   <path d="m375.691406 383.011719-67.238281-28.015625c-4.382813-1.824219-7.691406-5.363282-9.292969-9.644532-1.605468 4.28125-4.914062 7.820313-9.292968 9.644532l-67.238282 28.015625c-14.207031 5.921875-23.460937 22.007812-23.460937 37.398437v81.089844h199.984375v-81.089844c0-15.390625-9.257813-31.480468-23.460938-37.398437zm0 0" fill="#132728"/>
   <path d="m353.078125 405.480469c0-10.480469 3.554687-20.164063 9.507813-27.929688l-54.132813-22.554687c-6.277344-2.617188-10.367187-8.75-10.367187-15.550782l-.09375 37.53125c0 23.082032-18.886719 41.96875-41.964844 41.96875-23.082032 0-41.96875-18.886718-41.96875-41.96875l-.195313-37.53125c0 6.800782-4.089843 12.933594-10.367187 15.550782l-13.359375 5.566406c3.394531 7.21875 5.304687 15.261719 5.304687 23.730469v117.207031h157.636719zm0 0" fill="#132728"/>
   <path d="m189.425781 456.574219h133.464844v44.925781h-133.464844zm0 0" fill="#24a781"/>
   <path d="m298.085938 324.929688v51.953124c0 23.132813-18.925782 42.0625-42.0625 42.0625-23.1875 0-42.160157-18.972656-42.160157-42.164062v-51.851562l42.765625 11.320312zm0 0" fill="#febba0"/>
   <g fill="#ffe06b">
      <path d="m463.652344 456.699219-.003906-.003907c-.082032.015626-19.253907 2.476563-29.625-7.832031-10.371094-10.308593-8.027344-29.488281-8.019532-29.570312l-.003906-.003907h.007812v-.003906.003906c.160157-.019531 19.269532-2.457031 29.625 7.835938 10.398438 10.328125 8.019532 29.574219 8.019532 29.574219zm0 0"/>
      <path d="m471.695312 427.125c10.351563-10.292969 29.460938-7.855469 29.621094-7.835938l.003906-.003906v.003906h.003907v.003907c.007812.082031 2.351562 19.261719-8.023438 29.570312-10.371093 10.308594-29.539062 7.847657-29.625 7.832031l-.003906.003907c.003906 0-2.375-19.246094 8.023437-29.574219zm0 0"/>
      <path d="m463.652344 405.742188-.003906-.007813c-.082032.015625-19.253907 2.476563-29.625-7.828125-10.371094-10.3125-8.027344-29.488281-8.019532-29.574219l-.003906-.003906.007812.003906v-.007812.003906c.160157-.015625 19.269532-2.453125 29.625 7.835937 10.398438 10.332032 8.019532 29.578126 8.019532 29.578126zm0 0"/>
      <path d="m471.695312 376.164062c10.351563-10.289062 29.460938-7.851562 29.621094-7.835937l.003906-.003906v.007812l.003907-.003906v.003906c.007812.085938 2.351562 19.261719-8.023438 29.574219-10.371093 10.304688-29.539062 7.84375-29.625 7.828125l-.003906.007813c.003906 0-2.375-19.246094 8.023437-29.578126zm0 0"/>
      <path d="m463.652344 354.785156-.003906-.007812c-.082032.015625-19.253907 2.476562-29.625-7.828125-10.371094-10.3125-8.027344-29.492188-8.019532-29.574219l-.003906-.003906h.007812v-.003906.003906c.160157-.019532 19.269532-2.457032 29.625 7.835937 10.398438 10.328125 8.019532 29.578125 8.019532 29.578125zm0 0"/>
      <path d="m471.695312 325.207031c10.351563-10.289062 29.460938-7.855469 29.621094-7.835937l.003906-.003906v.003906h.003907v.003906c.007812.082031 2.351562 19.261719-8.023438 29.574219-10.371093 10.304687-29.539062 7.84375-29.625 7.828125l-.003906.007812c.003906 0-2.375-19.25 8.023437-29.578125zm0 0"/>
   </g>
   <path d="m10.585938 511.949219h-.136719c-5.769531 0-10.449219-4.679688-10.449219-10.449219s4.679688-10.445312 10.449219-10.445312h.136719c5.769531 0 10.445312 4.675781 10.445312 10.445312s-4.675781 10.449219-10.445312 10.449219zm0 0"/>
   <path d="m501.5 511.949219h-.136719c-5.769531 0-10.445312-4.679688-10.445312-10.449219s4.675781-10.445312 10.445312-10.445312h.136719c5.769531 0 10.449219 4.675781 10.449219 10.445312s-4.679688 10.449219-10.449219 10.449219zm0 0"/>
   <path d="m294.078125 235.449219c-6.4375 0-11.679687-5.238281-11.679687-11.675781 0-6.441407 5.242187-11.679688 11.679687-11.679688s11.675781 5.238281 11.675781 11.679688c0 6.4375-5.238281 11.675781-11.675781 11.675781zm0 0"/>
   <path d="m217.871094 235.449219c-6.4375 0-11.679688-5.238281-11.679688-11.675781 0-6.441407 5.242188-11.679688 11.679688-11.679688s11.679687 5.238281 11.679687 11.679688c0 6.4375-5.242187 11.675781-11.679687 11.675781zm0 0"/>
   <path d="m256.019531 292.425781c-11.390625 0-20.660156-9.269531-20.660156-20.660156 0-5.769531 4.679687-10.445313 10.449219-10.445313h20.417968c5.769532 0 10.449219 4.675782 10.449219 10.445313 0 11.390625-9.265625 20.660156-20.65625 20.660156zm0 0"/>
   <path d="m55.425781 90.898438c-4.058593 0-7.75-2.351563-9.46875-6.027344-5.570312-11.929688-14.722656-19.050782-24.488281-19.050782-5.769531 0-10.445312-4.675781-10.445312-10.445312s4.675781-10.449219 10.445312-10.449219c12.902344 0 24.859375 5.910157 33.957031 16.367188 9.097657-10.453125 21.050781-16.367188 33.957031-16.367188 5.765626 0 10.445313 4.679688 10.445313 10.449219s-4.679687 10.445312-10.445313 10.445312c-9.765624 0-18.917968 7.121094-24.492187 19.050782-1.714844 3.675781-5.40625 6.027344-9.464844 6.027344zm0 0"/>
   <path d="m88.335938 290.765625c-4.058594 0-7.75-2.347656-9.464844-6.023437-5.574219-11.929688-14.726563-19.050782-24.492188-19.050782-5.769531 0-10.445312-4.675781-10.445312-10.449218 0-5.769532 4.675781-10.445313 10.445312-10.445313 12.90625 0 24.859375 5.910156 33.957032 16.367187 9.097656-10.457031 21.054687-16.367187 33.957031-16.367187 5.769531 0 10.445312 4.675781 10.445312 10.445313 0 5.773437-4.675781 10.449218-10.445312 10.449218-9.765625 0-18.917969 7.121094-24.488281 19.050782-1.71875 3.675781-5.410157 6.023437-9.46875 6.023437zm0 0"/>
   <path d="m467.597656 45.972656c-4.058594 0-7.75-2.351562-9.46875-6.027344-5.570312-11.929687-14.726562-19.050781-24.488281-19.050781-5.769531 0-10.449219-4.675781-10.449219-10.445312 0-5.773438 4.679688-10.449219 10.449219-10.449219 12.902344 0 24.859375 5.910156 33.957031 16.367188 9.09375-10.453126 21.050782-16.367188 33.953125-16.367188 5.769531 0 10.449219 4.675781 10.449219 10.449219 0 5.769531-4.679688 10.445312-10.449219 10.445312-9.761719 0-18.917969 7.121094-24.488281 19.050781-1.71875 3.675782-5.410156 6.027344-9.464844 6.027344zm0 0"/>
   <path d="m463.582031 300.710938c-5.769531 0-10.445312-4.679688-10.445312-10.449219v-22.804688c0-5.769531 4.675781-10.449219 10.445312-10.449219s10.449219 4.679688 10.449219 10.449219v22.804688c0 5.769531-4.679688 10.449219-10.449219 10.449219zm0 0"/>
   <path d="m488.835938 289.308594c-5.769532 0-10.449219-4.679688-10.449219-10.449219v-22.804687c0-5.769532 4.679687-10.449219 10.449219-10.449219 5.769531 0 10.445312 4.679687 10.445312 10.449219v22.804687c0 5.769531-4.675781 10.449219-10.445312 10.449219zm0 0"/>
   <path d="m438.332031 289.226562c-5.769531 0-10.449219-4.675781-10.449219-10.445312v-22.808594c0-5.769531 4.679688-10.445312 10.449219-10.445312s10.449219 4.675781 10.449219 10.445312v22.808594c0 5.769531-4.679688 10.445312-10.449219 10.445312zm0 0"/>
   <path d="m365.425781 186.023438c0 4.640624-5.683593 9.390624-15.410156 13.117187 45.347656-6.929687 75.265625-19.085937 75.265625-32.414063 0-21.296874-76.132812-38.5625-170.042969-38.5625-18.824219 0-36.925781.695313-53.851562 1.972657v34.097656c15.933593-2.027344 34.316406-3.1875 53.894531-3.1875 60.832031-.003906 110.144531 11.179687 110.144531 24.976563zm0 0" fill="#24a781"/>
   <path d="m500.671875 456.273438c13.242187-13.167969 11.386719-34.945313 11.046875-38.035157-.5-4.910156-4.507812-8.890625-9.417969-9.351562-.878906-.101563-2.839843-.28125-5.488281-.304688 1.34375-.96875 2.632812-2.050781 3.855469-3.265625 13.308593-13.226562 11.375-35.144531 11.046875-38.074218-.515625-4.890626-4.523438-8.851563-9.417969-9.316407-.875-.097656-2.832031-.277343-5.472656-.300781 1.332031-.972656 2.625-2.054688 3.84375-3.269531 13.304687-13.226563 11.371093-35.144531 11.046875-38.074219-.519532-4.894531-4.519532-8.847656-9.417969-9.316406-3.613281-.402344-24.890625-2.167969-37.96875 10.828125-.230469.230469-.445313.46875-.667969.699219-.21875-.230469-.433594-.46875-.664062-.699219-13.109375-13.027344-34.457032-11.222657-37.976563-10.824219-4.914062.464844-8.925781 4.449219-9.414062 9.359375-.34375 3.117187-2.183594 24.871094 11.050781 38.027344 1.21875 1.214843 2.507812 2.296875 3.839844 3.265625-2.683594.023437-4.652344.210937-5.492188.304687-4.90625.472657-8.910156 4.453125-9.398437 9.363281-.34375 3.113282-2.183594 24.867188 11.050781 38.027344 1.21875 1.210938 2.511719 2.292969 3.851562 3.261719-2.703124.023437-4.679687.210937-5.515624.308594-4.890626.476562-8.890626 4.453125-9.386719 9.347656-.335938 3.078125-2.199219 24.867187 11.050781 38.039063 7.832031 7.78125 18.398438 10.296874 26.570312 10.949218v23.828125h-43.632812v-70.644531c0-20.367188-12.289062-39.707031-29.886719-47.039062l-67.238281-28.019532c-2.390625-.996094-3.9375-3.3125-3.9375-5.902344v-16.269531l27.3125-15.660156c.1875-.109375.375-.222656.558594-.34375 13.675781-9.03125 22.652344-25.089844 24.019531-42.960937.019531-.265626.03125-.53125.03125-.796876v-8.671874c13.566406-4.414063 23.402344-17.179688 23.402344-32.203126 0-6.695312-1.964844-12.9375-5.335938-18.199218 11.777344-2.746094 21.996094-5.910156 30.207031-9.386719 17.917969-7.59375 27-17.089844 27-28.230469 0-16.363281-18.953124-28.613281-57.941406-37.457031-6.566406-1.488281-13.566406-2.84375-20.921875-4.058594v-39.542969c0-4.332031-2.675781-8.214843-6.71875-9.761718-1.972656-.753906-48.8125-18.4375-94.171875-18.4375s-92.199218 17.683594-94.171875 18.4375c-4.046875 1.546875-6.71875 5.429687-6.71875 9.761718v39.300782c-7.898437 1.277344-15.394531 2.714844-22.398437 4.300781-38.988282 8.84375-57.941406 21.097656-57.941406 37.460937 0 16.804688 20.929687 25.4375 27.808593 28.273438 8.417969 3.46875 18.855469 6.628906 30.84375 9.382812-3.351562 5.25-5.304687 11.480469-5.304687 18.15625 0 15.023438 9.835937 27.789063 23.402344 32.203126v8.671874c0 .265626.011718.53125.03125.796876 1.371093 17.945312 10.285156 34.003906 23.851562 42.960937.1875.125.375.242187.570312.351563l27.464844 15.703124v16.21875c0 2.589844-1.542968 4.90625-3.933594 5.90625l-67.242187 28.015626c-17.597656 7.332031-29.886719 26.675781-29.886719 47.039062v70.644531h-21.816406v-73.265625c17.914062-9.164062 30.214844-27.800781 30.214844-49.269531v-31.136719c0-5.769531-4.679688-10.445312-10.449219-10.445312s-10.449219 4.675781-10.449219 10.445312v31.136719c0 14.945313-9.574218 27.691406-22.910156 32.4375-.097656.03125-.808594.234375-1.066406.316406v-64.863281c0-5.769531-4.675782-10.445312-10.445313-10.445312s-10.449219 4.675781-10.449219 10.445312v64.863281c-.238281-.078125-.917968-.269531-1.015624-.296875-13.359376-4.734375-22.960938-17.492187-22.960938-32.457031v-31.136719c0-5.769531-4.679688-10.449218-10.449219-10.449218s-10.445312 4.679687-10.445312 10.449218v31.136719c0 21.492187 12.328125 40.148437 30.277343 49.300781v83.683594c0 5.769531 4.675782 10.445312 10.445313 10.445312h426.785156c5.769531 0 10.449219-4.675781 10.449219-10.445312 0-3.308594-1.542969-6.25-3.9375-8.164062v-26.117188c8.171875-.652344 18.722656-3.171875 26.546875-10.945312 13.242187-13.167969-7.824219 7.773437 0 0zm-21.613281-123.65625c2.835937-2.816407 7.40625-4.144532 11.660156-4.707032-.589844 4.25-1.945312 8.808594-4.777344 11.625-2.839844 2.820313-7.414062 4.148438-11.660156 4.710938.585938-4.25 1.945312-8.8125 4.777344-11.628906zm0 50.957031c2.839844-2.820313 7.40625-4.148438 11.660156-4.710938-.585938 4.25-1.945312 8.8125-4.777344 11.632813-2.839844 2.816406-7.414062 4.144531-11.660156 4.707031.585938-4.25 1.945312-8.8125 4.777344-11.628906zm0 50.960937c2.839844-2.820312 7.40625-4.148437 11.660156-4.710937-.585938 4.25-1.945312 8.8125-4.777344 11.628906-2.839844 2.820313-7.414062 4.148437-11.660156 4.710937.585938-4.25 1.945312-8.816406 4.777344-11.628906zm-37.667969 6.921875c-2.835937-2.820312-4.195313-7.386719-4.78125-11.636719 4.25.5625 8.820313 1.890626 11.660156 4.714844 2.832031 2.8125 4.191407 7.378906 4.777344 11.628906-4.246094-.5625-8.820313-1.890624-11.65625-4.707031zm0-50.960937c-2.835937-2.820313-4.195313-7.382813-4.78125-11.632813 4.25.5625 8.820313 1.890625 11.660156 4.710938 2.832031 2.816406 4.191407 7.378906 4.777344 11.628906-4.246094-.5625-8.820313-1.886719-11.65625-4.707031zm0-50.957032c-2.835937-2.820312-4.191406-7.378906-4.78125-11.628906 4.253906.5625 8.824219 1.890625 11.660156 4.707032 2.832031 2.816406 4.191407 7.378906 4.777344 11.628906-4.246094-.5625-8.820313-1.890625-11.65625-4.707032zm-381.753906 151.515626h-8.359375v-67.375c.003906-.003907.003906-.007813.007812-.011719 1.367188.101562 2.746094.171875 4.140625.171875 1.414063 0 2.816407-.074219 4.207031-.179688 0 .007813 0 .011719.003907.015625zm116.34375-397.980469c14.070312-4.679688 47.976562-14.714844 79.992187-14.714844 31.9375 0 65.90625 10.039063 79.996094 14.71875v29.167969c-24.632812-2.960938-52.171875-4.53125-80.730469-4.53125-27.992187 0-55.003906 1.507812-79.257812 4.355468zm-41.078125 90.199219c-25.574219-6.214844-37.070313-13.15625-39.113282-16.589844 1.746094-2.878906 12.761719-11.035156 46.066407-18.03125 30.828125-6.476563 71.09375-10.042969 113.382812-10.042969 42.285157 0 82.554688 3.566406 113.382813 10.042969 33.480468 7.035156 44.433594 15.238281 46.089844 18.078125-1.496094 2.578125-11.007813 10.070312-39.011719 16.828125-2.140625-15.003906-23.757813-21.652344-40.222657-25.386719-21.542968-4.886719-50.023437-7.574219-80.199218-7.574219-30.175782 0-58.65625 2.6875-80.195313 7.574219-16.359375 3.710937-37.804687 10.296875-40.179687 25.101563zm51.734375 106.292968c-7.984375-5.40625-13.285157-15.292968-14.246094-26.570312v-17.050782c0-5.769531-4.679687-10.449218-10.449219-10.449218-7.140625 0-12.953125-5.8125-12.953125-12.953125 0-7.144531 5.8125-12.957031 12.953125-12.957031 5.769532 0 10.449219-4.675782 10.449219-10.445313v-18.734375c3.726563-1.050781 8.144531-2.113281 13.390625-3.128906 19.261719-3.730469 43.945312-5.785156 69.5-5.785156s50.234375 2.054687 69.5 5.785156c5.90625 1.144531 10.78125 2.347656 14.777344 3.523437v18.339844c0 5.769531 4.679687 10.445313 10.449218 10.445313 7.140626 0 12.953126 5.8125 12.953126 12.957031 0 7.140625-5.8125 12.953125-12.953126 12.953125-5.769531 0-10.449218 4.679687-10.449218 10.449218v17.050782c-.949219 11.046875-6.441406 21.171875-14.417969 26.574218l-56.09375 32.164063c-.191406.109375-.378906.222656-.5625.34375-7.832031 5.175781-17.183594 5.175781-25.015625 0-.1875-.121094-.378906-.238281-.574219-.351563zm101 45.59375v41.816406c0 17.378907-14.179688 31.519532-31.609375 31.519532-17.488282 0-31.714844-14.140625-31.714844-31.519532v-41.804687l7.9375 4.539063c7.335938 4.765624 15.53125 7.144531 23.726562 7.144531 8.199219 0 16.394532-2.382813 23.730469-7.148438zm-139.214844 155.894532h-25.175781v-70.644532c0-11.777344 7.320312-23.707031 17.03125-27.753906l4.871094-2.027344c2.152343 4.625 3.273437 9.65625 3.273437 14.851563zm164.023437 0h-112.574218v-24.03125h112.574218zm30.183594-85.574219v85.574219h-9.289062v-34.480469c0-5.769531-4.679688-10.445313-10.449219-10.445313h-133.464844c-5.769531 0-10.449219 4.675782-10.449219 10.445313v34.480469h-9.65625v-85.574219c0-8-1.667968-15.746094-4.871093-22.894531l38.964843-16.238282v10.628906c0 28.902344 23.601563 52.414063 52.609376 52.414063 28.953124 0 52.507812-23.511719 52.507812-52.414063v-10.628906l38.96875 16.238282c-3.203125 7.148437-4.871094 14.894531-4.871094 22.894531zm46.074219 85.574219h-25.175781v-85.574219c0-5.199219 1.121094-10.226563 3.277344-14.855469l4.867187 2.03125c9.710937 4.042969 17.03125 15.976562 17.03125 27.753906zm74.957031-125.792969c1.125.105469 2.679688.203125 4.519532.230469-1.34375.96875-2.632813 2.050781-3.851563 3.261718-.230469.226563-.441406.464844-.664063.699219-.222656-.234375-.4375-.472656-.664062-.699219-1.21875-1.210937-2.511719-2.292968-3.851562-3.261718 1.835937-.027344 3.386718-.125 4.511718-.230469zm.667969 54.449219c-.230469.230468-.441406.464843-.664063.699218-.222656-.230468-.4375-.46875-.664062-.699218-1.226562-1.214844-2.523438-2.300782-3.871094-3.273438 1.851563-.023438 3.410156-.121094 4.53125-.222656 1.125.101562 2.683594.199218 4.539063.222656-1.347657.972656-2.644531 2.058594-3.871094 3.273438zm0 0"/>
</svg>