<svg height="512pt" viewBox="-14 0 512 512.00211" width="512pt" xmlns="http://www.w3.org/2000/svg"><path d="m341.269531 186.574219c-17.664062 17.664062-21.457031 39.710937-21.480469 55.304687 15.589844-.023437 37.636719-3.816406 55.300782-21.480468 17.664062-17.667969 21.355468-39.609376 21.289062-55.113282-15.503906-.066406-37.445312 3.625-55.109375 21.289063zm0 0" fill="#a0e557"/><path d="m392.070312 339.113281-49.148437-49.144531c-1.101563-1.105469-2.25-2.144531-3.410156-3.148438-15.570313.511719-30.988281 6.691407-42.875 18.578126l-34.679688 34.679687 34.449219 14.363281 8 29.5h31.570312zm0 0" fill="#ffb954"/><path d="m37.503906 430.675781 90.253906 71.324219 54.0625-54.058594h145.304688c14.8125 0 29.207031-4.921875 40.921875-13.988281l94.507813-73.144531c7.578124-5.867188 11.273437-14.449219 11.253906-22.992188-9.242188-3.53125-19.800782-2.15625-27.875 3.964844l-91.289063 69.203125h-58.203125c9.898438 0 18.335938-7.183594 19.914063-16.960937.566406-3.5.171875-6.949219-.96875-10.082032h-37.613281c8.832031 0 16.488281-5.726562 19.160156-13.902344l-80.160156-21.769531c-18.539063-5.035156-38.328126-2.285156-54.792969 7.609375zm0 0" fill="#ffdfdf"/><path d="m250.378906 136.769531c15.554688 15.550781 34.796875 19.429688 49.003906 19.761719-.328124-14.210938-4.207031-33.453125-19.757812-49.007812-15.554688-15.550782-34.707031-19.34375-48.839844-19.597657.25 14.132813 4.042969 33.289063 19.59375 48.84375zm0 0" fill="#a0e557"/><path d="m483.746094 335.640625c-.730469-12.839844-7.734375-24.484375-18.734375-31.148437-13.769531-8.34375-30.957031-7.449219-43.785157 2.277343l-26.9375 20.421875-44.292968-44.292968c-11.515625-11.515626-26.179688-18.730469-42.046875-20.875v-10.769532c3.328125.371094 7.320312.652344 11.796875.652344 17.511718 0 42.285156-4.308594 62.417968-24.4375 34.476563-34.476562 22.25-82.238281 21.710938-84.253906-.921875-3.460938-3.625-6.167969-7.085938-7.089844-2.019531-.535156-49.777343-12.761719-84.257812 21.710938-1.09375 1.09375-2.136719 2.203124-3.136719 3.320312.433594-16.363281-2.929687-40.933594-22.699219-60.703125-32.074218-32.074219-76.488281-20.703125-78.363281-20.203125-3.460937.921875-6.167969 3.628906-7.089843 7.089844-.5 1.875-11.871094 46.289062 20.203124 78.363281 18.730469 18.730469 41.769532 22.734375 58.058594 22.734375 3.085938 0 5.917969-.144531 8.445313-.359375v73.949219c-15.867188 2.140625-30.53125 9.355468-42.046875 20.871094l-32.203125 32.203124-12.96875-3.523437c-21.058594-5.71875-43.863281-2.554687-62.566407 8.6875l-133.3125 80.105469c-4.734374 2.84375-6.265624 8.988281-3.421874 13.722656 1.878906 3.121094 5.1875 4.847656 8.582031 4.847656 1.753906 0 3.53125-.460937 5.140625-1.429687l133.3125-80.105469c14.054687-8.449219 31.195312-10.828125 47.023437-6.527344l84.949219 23.070313c5.039062 1.367187 8.210938 6.285156 7.378906 11.4375-.796875 4.957031-5.023437 8.554687-10.042968 8.554687h-64.726563c-5.523437 0-10 4.476563-10 10 0 5.523438 4.476563 10 10 10h122.929687c2.179688 0 4.300782-.710937 6.039063-2.03125l91.289063-69.203125c6.253906-4.742187 14.632812-5.175781 21.34375-1.109375 5.441406 3.296875 8.769531 8.828125 9.128906 15.179688.363281 6.355468-2.3125 12.230468-7.34375 16.121094l-94.507813 73.144531c-9.910156 7.671875-22.269531 11.898437-34.804687 11.898437h-39.71875c-5.519532 0-9.996094 4.476563-9.996094 10 0 5.519532 4.476562 10 9.996094 10h39.71875c16.941406 0 33.648437-5.710937 47.046875-16.082031l94.503906-73.144531c10.171875-7.871094 15.808594-20.234375 15.074219-33.074219zm-157.074219-163.660156c20.269531-20.269531 47.128906-19.3125 58.96875-17.652344 1.613281 11.824219 2.542969 38.832031-17.621094 58.996094-19.957031 19.957031-47.152343 19.339843-59.203125 17.855469-1.484375-12.050782-2.101562-39.242188 17.855469-59.199219zm-91.085937-20.417969c-18.105469-18.109375-17.566407-42.042969-16.109376-53.078125 11.050782-1.457031 34.976563-1.988281 53.074219 16.113281 17.820313 17.820313 17.585938 42.03125 16.296875 53.257813-11.242187 1.292969-35.445312 1.523437-53.261718-16.292969zm97.027343 222.378906h-26.425781c.609375-1.714844 1.074219-3.511718 1.371094-5.367187 2.464844-15.285157-6.941406-29.867188-21.878906-33.925781l-49.738282-13.507813 24.101563-24.101563c10.125-10.125 23.585937-15.703124 37.90625-15.703124 14.316406 0 27.78125 5.578124 37.90625 15.703124l42.34375 42.347657zm0 0"/><path d="m243.90625 437.941406c-2.628906 0-5.210938 1.070313-7.070312 2.929688-1.859376 1.859375-2.929688 4.4375-2.929688 7.070312 0 2.628906 1.070312 5.207032 2.929688 7.070313 1.859374 1.859375 4.441406 2.929687 7.070312 2.929687s5.210938-1.070312 7.070312-2.929687c1.859376-1.863281 2.929688-4.441407 2.929688-7.070313 0-2.632812-1.070312-5.210937-2.929688-7.070312-1.859374-1.859375-4.441406-2.929688-7.070312-2.929688zm0 0"/><path d="m199.90625 437.941406h-18.085938c-2.652343 0-5.195312 1.054688-7.070312 2.929688l-54.0625 54.058594c-3.90625 3.90625-3.90625 10.238281 0 14.144531 1.953125 1.953125 4.511719 2.929687 7.070312 2.929687 2.558594 0 5.117188-.976562 7.070313-2.929687l51.132813-51.132813h13.945312c5.523438 0 10-4.476562 10-10 0-5.523437-4.476562-10-10-10zm0 0"/><path d="m397.9375 79.164062c2.558594 0 5.121094-.976562 7.070312-2.925781 3.90625-3.90625 3.90625-10.238281 0-14.144531-21.753906-21.753906-57.152343-21.753906-78.910156 0-3.902344 3.90625-3.902344 10.238281 0 14.144531 3.90625 3.902344 10.238282 3.902344 14.144532 0 13.957031-13.957031 36.667968-13.957031 50.625 0 1.953124 1.949219 4.511718 2.925781 7.070312 2.925781zm0 0"/><path d="m300.785156 46.78125c2.558594 0 5.117188-.976562 7.070313-2.929688 31.816406-31.816406 83.582031-31.816406 115.398437 0 3.902344 3.902344 10.234375 3.902344 14.140625 0 3.90625-3.90625 3.90625-10.238281 0-14.140624-39.613281-39.613282-104.066406-39.613282-143.679687 0-3.90625 3.902343-3.90625 10.234374 0 14.140624 1.953125 1.953126 4.511718 2.929688 7.070312 2.929688zm0 0"/><path d="m358.484375 94.691406c-1.863281 1.859375-2.929687 4.4375-2.929687 7.078125 0 2.628907 1.066406 5.210938 2.929687 7.070313 1.859375 1.859375 4.4375 2.929687 7.070313 2.929687 2.628906 0 5.207031-1.070312 7.066406-2.929687 1.863281-1.871094 2.929687-4.441406 2.929687-7.070313 0-2.640625-1.066406-5.21875-2.929687-7.078125-1.859375-1.859375-4.4375-2.929687-7.066406-2.929687-2.632813 0-5.210938 1.070312-7.070313 2.929687zm0 0"/></svg>