<svg xmlns="http://www.w3.org/2000/svg" width="342" height="13" viewBox="0 0 342 13">
  <defs>
    <style>
      .cls-1 {
        fill: #24a781;
        fill-rule: evenodd;
      }
    </style>
  </defs>
  <path class="cls-1" d="M338.736,0.605a0.943,0.943,0,0,1,.806.151C339.182,0.668,338.794.854,338.736,0.605ZM9.278,1.363a4.384,4.384,0,0,1-1.581.1A12.588,12.588,0,0,1,9.278,1.363ZM330.893,7.507c0.361-.012.568,0.024,0.538,0.156C331.073,7.675,330.774,7.681,330.893,7.507ZM271.806,9.186c0.358-.018.568,0.018,0.538,0.151C271.986,9.355,271.687,9.355,271.806,9.186ZM312.082,0.4c0.388,0.058.925,0.08,1.313,0.151,0.476,0.034.326-.181,0.507-0.255,2.921-.2,6.8.087,9.033-0.307a3.888,3.888,0,0,0,2.207,0,22.683,22.683,0,0,0,3.935.1,0.486,0.486,0,0,1,.507.307A1.43,1.43,0,0,0,330.24.194c0.507,0.122,1.548.018,1.578,0.307-0.326-.006-0.415-0.1-0.506.052-0.178-.018-0.119-0.128-0.15-0.2a2.724,2.724,0,0,1-1.16.3,0.7,0.7,0,0,0,.772.156c0.15,0.155,0,.115,0,0.3a5.19,5.19,0,0,0,1.82-.353c0.357-.035.269,0.1,0.387,0.15a5.805,5.805,0,0,1,1.463-.2,0.762,0.762,0,0,1-.269.255c0.415-.018.983,0.017,0.922-0.2,0.36,0.046.629,0.121,1.044,0.15a4.245,4.245,0,0,1-1.044.509,2.391,2.391,0,0,0,1.044.1c0.092,0.342,1.014.377,1.313,0.655a3.544,3.544,0,0,1,.656-0.2,0.54,0.54,0,0,0,.507.1c-0.031.271-.894,0.225-1.163,0.405a0.725,0.725,0,0,0,.775-0.052,5.792,5.792,0,0,0,1.966.2c0.626,0.214,1.374.289,1.82,0.457a11.665,11.665,0,0,1-1.432,0c-0.027.238,0.15,0.076,0.507,0.156a12.7,12.7,0,0,0-2.861.556c0.327,0.319.089,0.116-.119,0.36,0.208,0.266.327-.157,0.626,0,0.238,0.237.058,0.364-.119,0.607a3.1,3.1,0,0,0-.925-0.051c-0.3.092,0.388,0.133,0.418,0.149,0.089,0.214-.806.029-0.925,0.156-0.326.11,0.476,0.273,0.119,0.405a11.007,11.007,0,0,0-2.353-.15c0.088,0.6,1.965.335,3.01,0.353-0.6.359-.327,0.37,0,0.759a3.6,3.6,0,0,1-2.089-.2c-0.863.161-1.669,0.087-2.353,0.255,0.149,0.266-.208.323-0.269,0.509a0.709,0.709,0,0,0-.656-0.1c-0.15.052,0.33,0.285,0.806,0.255-0.449.1-1.194,0-.806,0.307a0.845,0.845,0,0,1-.776-0.562,5.386,5.386,0,0,0-1.309.359,1.462,1.462,0,0,1-.388-0.151c-1.075.185-2.506,0.249-3.52,0.452a0.816,0.816,0,0,1-.922.307V8.272a11.55,11.55,0,0,0,2.742-.51c1.758,0.382,3.7.058,5.1,0.562-1.52.266-3.517-.389-4.83,0.15,1.459,0.476,4.353-.2,5.874.458-0.568.174-1.4-.047-1.7,0.255a6.379,6.379,0,0,1,.775.255,1.33,1.33,0,0,0-.119.353c0.387,0.225,1.608.115,1.966,0.358-0.266.655-2.922,0.058-3.4,0.556-2.592-.034-5.217.255-7.72,0.255-0.477.012-.358-0.2-0.776-0.2a49.912,49.912,0,0,1-5.9.255c-0.388.052-.208-0.116-0.238-0.2a12.123,12.123,0,0,1-4.442.1,3.342,3.342,0,0,1-2.116.1,23.867,23.867,0,0,1-4.441.15,18.873,18.873,0,0,1-4.949.1c-0.479-.082-0.092.167-0.418,0.151-1.371-.006-2.238-0.052-3.251-0.1a2.45,2.45,0,0,0-.8.2c-1.85.092-3.49-.04-4.83,0-0.33.012-.626,0.133-0.894,0.157-0.626.04-1.252-.116-1.85-0.1a5.875,5.875,0,0,1-2.354,0,23.16,23.16,0,0,1-5.367.2,2.559,2.559,0,0,0-.626.2c-0.894-.18-1.371.063-2.237-0.1-2.8.41-6.5,0.225-9.418,0.4a7.45,7.45,0,0,0-1.7-.306c-0.119.185,0.626,0.022,0.388,0.254-1.819-.145-4.86.62-6.918,0a3.273,3.273,0,0,0-.387.306c-2.116-.144-3.725.111-5.1-0.255a4.313,4.313,0,0,0-1.041.307,1.9,1.9,0,0,0-1.074-.1,20.228,20.228,0,0,1-4.024.052,5.168,5.168,0,0,0-.656.151c-0.568.052-1.49-.087-2.238-0.052-0.534.024-.983,0.151-1.309,0.157-0.867.006-1.582-.255-2.357-0.255-1.014,0-2.085.209-3.248,0.255-1.878.076-4.323,0.086-6.143,0.1-0.625.006-1.67,0-2.353-.052-0.092-.006-0.538-0.151-0.657-0.151-0.18,0-.3.128-0.537,0.151a13.008,13.008,0,0,1-2.863-.046c-2,.231-3.963-0.011-6.021.046-1.758.052-3.727,0.179-5.635,0.1-0.269-.012-0.446-0.122-0.776-0.151a8.334,8.334,0,0,0-1.044.1,48.17,48.17,0,0,1-5.751-.2c-0.18.052-.479,0.052-0.656,0.1a7.621,7.621,0,0,1-.925-0.157c-2,.348-3.578-0.04-5.337.157a14.8,14.8,0,0,0-2.622,0c-4.234-.168-7.962.018-11.778-0.157-0.149-.006-0.387.111-0.656,0.1-2.623-.052-6.619.221-9.928-0.15-0.058.122,0.6-.028,0.388,0.15-1.31.018-4.231,0.434-5.218,0a2.559,2.559,0,0,1-.268.151c-1.966.034-3.816-.006-5.632,0a48.559,48.559,0,0,1-6.8-.052c-1.551.024-3.071,0.012-4.292,0.1-0.031-.225-0.925.075-0.538-0.151a12.518,12.518,0,0,1-3.278-.052,24.936,24.936,0,0,1-5.486-.1c-0.357-.006-0.3.157-0.656,0.157-1.432-.388-4.5.04-5.993-0.255-1.191.191-3.248-.121-4.2,0.1-1.31-.173-2.5,0-4.054-0.2-5.724.116-13.386-.052-19.08-0.353a35.39,35.39,0,0,1-6.408-.254,2.5,2.5,0,0,0-.925.2c-0.387-.03-0.537-0.157-0.894-0.2-3.071-.2-7.156.109-10.2-0.307a20.962,20.962,0,0,1-4.2-.1,1.247,1.247,0,0,0-.388.1c-6.32-.215-12.968-0.04-18.424-0.353-2.623.168-5.217-.116-7.989-0.15-0.806-.012-1.639.1-2.476,0.1s-1.639-.132-2.473-0.15c-1.371-.023-2.744.116-4.054,0.052-0.925-.047-1.819-0.226-2.744-0.255-2.833-.1-5.663-0.075-8.5-0.2a1.95,1.95,0,0,1-.537-0.156,11.768,11.768,0,0,1-1.7.052c-0.507.035,0.146,0.214-.537,0.2-0.031-.307-1.371-0.214-2.476-0.2-0.15-.1-0.507-0.139-0.656-0.254a26.069,26.069,0,0,1-5.751-.354c-2.207-.052-5.309-0.273-8.111-0.307a75.164,75.164,0,0,1-9-.457,23.245,23.245,0,0,1-3.666,0c0.3-.527,2.265-0.255,3.666-0.3C14.165,8.723,15.24,8.515,17,8.525a0.361,0.361,0,0,1,.119-0.15c-2.146-.451-5.513.035-7.452-0.254a15.432,15.432,0,0,1-3.639-.1c0.031-.266.925-0.2,1.432-0.3-0.3-.18-0.6-0.116-0.388-0.412C5.7,7.2,4,7.369,3.016,7.258,2.9,7.085,3.523,7.188,3.4,7,3.285,6.627,2.21,6.621,1.05,6.643,0.424,6.563.782,6.1,0.006,6.089A1,1,0,0,0,.125,5.225,7.479,7.479,0,0,0,1.7,4.664C1.734,4.478,1.169,4.53,1.319,4.311c5.306-.95,12.908-0.9,19.08-0.66a4.8,4.8,0,0,0,1.816-.51,15.6,15.6,0,0,0,2.745-.1,10.119,10.119,0,0,0-2.207-.613c0.3-.11-0.061-0.2,0-0.353-2.058-.284-4.2-0.157-6.292-0.255V1.67c-1.578-.121-3.874-0.191-4.949-0.2a85.916,85.916,0,0,1,9.928-.052A11.081,11.081,0,0,0,22.6,1.264c0.357,0.018.418,0.151,0.806,0.151,4.234-.219,7.751.07,11.744,0.052,0.061,0.1-.089.134-0.119,0.2,1.194-.277,3.7.006,5.486-0.2,2.058,0.082,4.173.261,6.292,0.255,3.071-.012,6.319-0.052,9.152.151,1.7,0.122,3.459-.075,5.6,0,6.142,0.214,12.907.024,19.229,0.3,3.428,0.157,7.034-.087,10.581.1,1.881,0.1,4.445.006,6.53,0.254a1.831,1.831,0,0,0,.806-0.1,4.29,4.29,0,0,0,.656.1c9.659-.092,20.182.145,29.273,0.3,2.925,0.052,5.993-.232,8.768.052,1.877-.156,4.143.028,6.646-0.052,3.877-.122,8.2-0.082,11.778-0.151,0.387,0.081-.568.047-0.776,0.052,4.353,0.191,11.21-.2,16.455-0.151,1.105,0.006,2.03-.024,2.775-0.052,1.282-.046,2.442.034,3.636,0,0.268-.006.418,0,0.418,0.1,2.772-.151,5.513-0.214,8.077-0.1a2.1,2.1,0,0,0,.419-0.15c0.3,0.062.714,0.086,1.044,0.15a10.915,10.915,0,0,1,4.173.052,75.518,75.518,0,0,1,8.5-.156c2.088,0.046,5.455-.168,7.574-0.2a3.232,3.232,0,0,1,1.041.255c2.775-.446,7.037.093,9.809-0.255a0.611,0.611,0,0,1,.537.1c1.758-.163,4.918-0.134,7.305-0.157,3.7-.024,7.095.127,10.343,0a31.863,31.863,0,0,1,5.6-.046,17.176,17.176,0,0,1,3.666,0c2.089-.273,4.922-0.052,6.8-0.307,0.388,0.012.568,0.092,0.925,0.1a5.4,5.4,0,0,1,1.816,0c1.939-.208,4.415-0.2,6.83-0.2,3.278-.006,7.006-0.353,9.927.046a3.9,3.9,0,0,0,1.044-.353c0.3,0.1-.122.226,0.119,0.307h0.922c1.045-.655,2.953.03,4.177-0.51,1.221,0.215,3.4-.243,4.976-0.052a3.373,3.373,0,0,1,.656.255,7.917,7.917,0,0,1,4.173-.052,1.789,1.789,0,0,1,.538-0.1c0.119-.191-0.327-0.144-0.269-0.306,3.489-.359,6.112-0.012,9.152-0.307-0.058.173,0.537,0.092,0.507,0.254,0.956-.643,3.52-0.134,4.86-0.405-0.119.185,0.568,0.052,0.656,0.151a6.206,6.206,0,0,1,1.313-.3,2.5,2.5,0,0,1,.626.151,16.9,16.9,0,0,1,4.472-.1c0.446,0.022.3-.185,0.776-0.157C311.963,0.4,313.663.27,312.082,0.4Zm-12.55,1.522a1.69,1.69,0,0,1,.656.1,3.32,3.32,0,0,1,.388-0.255C300.158,1.664,299.474,1.606,299.532,1.925Zm-32.824.406a1.642,1.642,0,0,0,1.313.15,3.065,3.065,0,0,0-1.581-.15h0.268Zm-8.377.81a1.376,1.376,0,0,0,.657,0c-0.238-.057.268-0.352-0.507-0.306C258.481,2.956,258.243,2.985,258.331,3.14Zm7.452,4.824c0.6-.024.18,0.342,0.657,0.359,0.268-.122-0.269-0.307,0-0.457A1.279,1.279,0,0,0,265.783,7.965Zm48.268,0.458c0.776-.11,1.728.214,2.088-0.151C315.3,8.334,314.17,8.04,314.051,8.422Zm12.669,0.1a1.117,1.117,0,0,1,.388.052,0.551,0.551,0,0,0,.268-0.254C327.077,8.214,326.632,8.334,326.72,8.525Zm-55.958.713c0.477,0.2-.149.139-0.119,0.405,0.357,0.174,1.85.081,1.163-.156a2.43,2.43,0,0,1,.388-0.046c-0.061.36,1.014,0.283,1.459,0.457-0.207-.342-1.459-0.464-1.071-0.863A2.72,2.72,0,0,0,270.762,9.239Zm-15.828.2a1.323,1.323,0,0,1,.922,0c0.387-.018.149-0.278,0.537-0.307A1.794,1.794,0,0,0,254.934,9.441Zm9.42,0.711a1.225,1.225,0,0,0,.269-0.358C264.025,9.724,263.906,10.125,264.354,10.153Zm6.946,1.825a1.192,1.192,0,0,0,.775-0.1,3.843,3.843,0,0,0-1.044-.1C271.15,11.862,271.568,11.879,271.3,11.978Z"/>
</svg>
