<svg xmlns="http://www.w3.org/2000/svg" width="332" height="13" viewBox="0 0 332 13">
  <defs>
    <style>
      .cls-1 {
        fill: #24a781;
        fill-rule: evenodd;
      }
    </style>
  </defs>
  <path class="cls-1" d="M328.831,0.616a0.9,0.9,0,0,1,.783.151C329.264,0.679,328.888.865,328.831,0.616ZM9,1.374a4.136,4.136,0,0,1-1.535.1A11.726,11.726,0,0,1,9,1.374ZM321.218,7.525c0.349-.012.551,0.024,0.521,0.156C321.393,7.694,321.1,7.7,321.218,7.525ZM263.857,9.206c0.346-.018.551,0.018,0.521,0.151C264.031,9.375,263.741,9.375,263.857,9.206Zm39.1-8.793c0.376,0.058.9,0.081,1.274,0.151,0.463,0.034.317-.181,0.492-0.255,2.836-.2,6.6.087,8.77-0.308a3.664,3.664,0,0,0,2.142,0,21.345,21.345,0,0,0,3.82.1,0.473,0.473,0,0,1,.493.308A1.361,1.361,0,0,0,320.584.2c0.492,0.123,1.5.018,1.532,0.308-0.317-.006-0.4-0.1-0.492.052-0.172-.018-0.116-0.129-0.145-0.2a2.589,2.589,0,0,1-1.127.3,0.667,0.667,0,0,0,.75.157c0.146,0.155,0,.115,0,0.3a4.919,4.919,0,0,0,1.767-.353c0.346-.036.261,0.1,0.376,0.151a5.461,5.461,0,0,1,1.42-.2,0.752,0.752,0,0,1-.261.255c0.4-.018.954,0.017,0.895-0.2,0.349,0.046.61,0.121,1.013,0.151a4.074,4.074,0,0,1-1.013.509,2.254,2.254,0,0,0,1.013.1c0.089,0.342.984,0.377,1.275,0.655a3.353,3.353,0,0,1,.637-0.2,0.511,0.511,0,0,0,.492.1c-0.03.272-.868,0.226-1.129,0.406a0.687,0.687,0,0,0,.753-0.052,5.457,5.457,0,0,0,1.908.2c0.608,0.214,1.334.29,1.766,0.457a10.914,10.914,0,0,1-1.39,0c-0.026.239,0.146,0.076,0.492,0.157a11.986,11.986,0,0,0-2.776.556c0.317,0.32.085,0.117-.116,0.36,0.2,0.266.317-.157,0.607,0,0.232,0.237.057,0.365-.115,0.608a2.911,2.911,0,0,0-.9-0.051c-0.291.092,0.376,0.133,0.406,0.15,0.086,0.214-.782.029-0.9,0.157-0.317.11,0.462,0.273,0.116,0.405a10.411,10.411,0,0,0-2.285-.15c0.086,0.6,1.908.336,2.922,0.353-0.578.36-.317,0.37,0,0.76a3.391,3.391,0,0,1-2.027-.2c-0.839.161-1.622,0.087-2.285,0.255,0.145,0.266-.2.324-0.261,0.509a0.672,0.672,0,0,0-.637-0.1c-0.146.052,0.32,0.285,0.782,0.255-0.436.1-1.159,0-.782,0.308a0.826,0.826,0,0,1-.753-0.563,5.116,5.116,0,0,0-1.272.36,1.406,1.406,0,0,1-.376-0.151c-1.043.186-2.433,0.25-3.417,0.453a0.784,0.784,0,0,1-.895.307V8.291a10.916,10.916,0,0,0,2.661-.51c1.707,0.382,3.589.058,4.95,0.562-1.476.266-3.415-.389-4.689,0.15,1.417,0.476,4.226-.2,5.7.458-0.551.174-1.36-.046-1.65,0.255a6,6,0,0,1,.752.255,1.36,1.36,0,0,0-.115.353c0.376,0.226,1.561.115,1.908,0.359-0.258.655-2.836,0.058-3.3,0.557-2.517-.034-5.065.255-7.5,0.255-0.463.011-.347-0.2-0.753-0.2a47.03,47.03,0,0,1-5.732.255c-0.376.052-.2-0.117-0.231-0.2a11.415,11.415,0,0,1-4.312.1,3.15,3.15,0,0,1-2.054.1,22.476,22.476,0,0,1-4.312.15,17.769,17.769,0,0,1-4.8.1c-0.465-.082-0.089.168-0.406,0.151-1.331-.006-2.172-0.052-3.156-0.1a2.33,2.33,0,0,0-.78.2c-1.8.093-3.387-.04-4.688,0-0.32.012-.608,0.133-0.869,0.157-0.607.04-1.215-.116-1.8-0.1a5.527,5.527,0,0,1-2.285,0,21.811,21.811,0,0,1-5.21.2,2.42,2.42,0,0,0-.607.2c-0.869-.181-1.331.063-2.172-0.1-2.718.41-6.307,0.225-9.143,0.4A7.062,7.062,0,0,0,259.921,12c-0.116.185,0.607,0.022,0.376,0.254-1.766-.145-4.718.621-6.715,0a3.14,3.14,0,0,0-.377.307c-2.054-.144-3.615.111-4.949-0.255a4.108,4.108,0,0,0-1.011.308,1.786,1.786,0,0,0-1.043-.1,19.055,19.055,0,0,1-3.906.052,4.845,4.845,0,0,0-.637.151c-0.551.052-1.446-.087-2.173-0.052-0.518.024-.954,0.15-1.271,0.156-0.842.006-1.535-.255-2.288-0.255-0.984,0-2.024.21-3.153,0.255-1.823.076-4.2,0.087-5.963,0.1-0.607.006-1.621,0-2.285-.052-0.089-.006-0.522-0.151-0.637-0.151-0.175,0-.291.129-0.522,0.151a12.252,12.252,0,0,1-2.78-.047c-1.938.232-3.846-.012-5.844,0.047-1.707.052-3.619,0.179-5.471,0.1-0.261-.012-0.432-0.122-0.753-0.151a7.927,7.927,0,0,0-1.013.1,45.334,45.334,0,0,1-5.584-.2c-0.174.052-.465,0.052-0.637,0.1a7.244,7.244,0,0,1-.9-0.156c-1.938.348-3.473-.04-5.18,0.156a13.944,13.944,0,0,0-2.546,0c-4.111-.168-7.729.018-11.434-0.156-0.145-.006-0.376.111-0.637,0.1-2.546-.052-6.425.221-9.638-0.151-0.056.122,0.581-.028,0.377,0.151-1.272.018-4.108,0.435-5.065,0a2.551,2.551,0,0,1-.261.151c-1.908.034-3.7-.006-5.468,0a45.779,45.779,0,0,1-6.6-.052c-1.5.024-2.981,0.012-4.167,0.1-0.029-.226-0.9.075-0.521-0.151a11.785,11.785,0,0,1-3.183-.052,23.508,23.508,0,0,1-5.326-.1c-0.347-.006-0.29.156-0.637,0.156-1.39-.388-4.369.041-5.818-0.255-1.156.192-3.153-.121-4.081,0.1-1.271-.173-2.43,0-3.935-0.2-5.557.117-13-.052-18.523-0.354a33.33,33.33,0,0,1-6.221-.254,2.38,2.38,0,0,0-.9.2c-0.376-.03-0.521-0.156-0.868-0.2-2.981-.2-6.947.109-9.9-0.308a19.739,19.739,0,0,1-4.081-.1,1.183,1.183,0,0,0-.377.1c-6.135-.215-12.589-0.04-17.885-0.354-2.546.169-5.065-.116-7.756-0.15-0.782-.012-1.592.1-2.4,0.1s-1.592-.133-2.4-0.151c-1.331-.023-2.664.116-3.936,0.052-0.9-.047-1.766-0.226-2.664-0.255-2.75-.1-5.5-0.075-8.248-0.2a1.849,1.849,0,0,1-.521-0.157,11.091,11.091,0,0,1-1.648.052c-0.492.036,0.142,0.215-.522,0.2-0.03-.307-1.331-0.214-2.4-0.2-0.145-.1-0.492-0.139-0.637-0.254a24.528,24.528,0,0,1-5.584-.354c-2.143-.052-5.154-0.273-7.874-0.308a70.776,70.776,0,0,1-8.74-.458,21.909,21.909,0,0,1-3.559,0c0.29-.527,2.2-0.255,3.559-0.3,1.562-.058,2.605-0.266,4.312-0.255a0.364,0.364,0,0,1,.116-0.151c-2.083-.451-5.352.035-7.234-0.254a14.59,14.59,0,0,1-3.533-.1c0.03-.267.9-0.2,1.39-0.3-0.287-.18-0.578-0.116-0.376-0.412-1.331-.1-2.982.064-3.936-0.046C2.8,7.1,3.409,7.206,3.293,7.02c-0.116-.377-1.159-0.382-2.285-0.36C0.4,6.58.747,6.117-.005,6.105A1.027,1.027,0,0,0,.11,5.241,7.148,7.148,0,0,0,1.643,4.68c0.03-.187-0.519-0.134-0.374-0.354,5.151-.951,12.53-0.9,18.523-0.661a4.57,4.57,0,0,0,1.764-.511,14.694,14.694,0,0,0,2.664-.1,9.6,9.6,0,0,0-2.143-.614c0.29-.11-0.059-0.2,0-0.353-2-.284-4.081-0.157-6.108-0.255V1.682c-1.532-.121-3.761-0.191-4.8-0.2A80.805,80.805,0,0,1,20.8,1.426a10.466,10.466,0,0,0,1.129-.151c0.347,0.018.406,0.151,0.782,0.151,4.111-.22,7.525.07,11.4,0.052,0.059,0.1-.086.134-0.115,0.2,1.159-.278,3.589.006,5.326-0.2,2,0.082,4.051.261,6.108,0.255,2.982-.012,6.135-0.052,8.885.151,1.651,0.122,3.358-.075,5.441,0,5.963,0.214,12.53.024,18.668,0.3,3.328,0.157,6.828-.087,10.272.105,1.826,0.1,4.315.006,6.339,0.255a1.724,1.724,0,0,0,.782-0.1,4.1,4.1,0,0,0,.637.1c9.377-.092,19.593.145,28.419,0.3,2.839,0.052,5.817-.233,8.511.052,1.823-.157,4.022.028,6.452-0.052,3.764-.122,7.96-0.082,11.434-0.151,0.376,0.081-.551.047-0.753,0.052C154.747,2.94,161.4,2.552,166.5,2.6c1.073,0.006,1.971-.024,2.694-0.052,1.245-.046,2.371.034,3.53,0,0.26-.006.406,0,0.406,0.1a77.468,77.468,0,0,1,7.842-.1,2.021,2.021,0,0,0,.406-0.151c0.29,0.063.693,0.087,1.013,0.151a10.269,10.269,0,0,1,4.051.052,71.176,71.176,0,0,1,8.248-.157c2.027,0.047,5.3-.168,7.353-0.2a3.054,3.054,0,0,1,1.011.255c2.694-.446,6.831.093,9.522-0.255a0.58,0.58,0,0,1,.521.1c1.707-.163,4.775-0.134,7.092-0.157,3.589-.024,6.888.127,10.041,0a30.028,30.028,0,0,1,5.441-.046,16.149,16.149,0,0,1,3.56,0c2.027-.273,4.777-0.052,6.6-0.308,0.376,0.012.551,0.092,0.9,0.1a5.072,5.072,0,0,1,1.763,0,65.584,65.584,0,0,1,6.63-.2c3.183-.006,6.8-0.353,9.638.047a3.744,3.744,0,0,0,1.013-.354c0.288,0.1-.118.226,0.116,0.307h0.895c1.013-.655,2.866.03,4.054-0.511,1.185,0.215,3.3-.243,4.831-0.052a3.2,3.2,0,0,1,.637.255,7.457,7.457,0,0,1,4.051-.052,1.68,1.68,0,0,1,.522-0.1c0.115-.191-0.317-0.145-0.261-0.306C284,0.61,286.546.958,289.5,0.662c-0.056.173,0.522,0.092,0.492,0.255,0.928-.643,3.417-0.134,4.718-0.406-0.115.185,0.551,0.052,0.637,0.151a5.851,5.851,0,0,1,1.275-.3,2.355,2.355,0,0,1,.607.151,15.919,15.919,0,0,1,4.342-.1c0.433,0.022.287-.185,0.753-0.157C302.84,0.407,304.491.279,302.956,0.413ZM290.772,1.937a1.591,1.591,0,0,1,.638.1,3.087,3.087,0,0,1,.376-0.255C291.38,1.676,290.716,1.617,290.772,1.937Zm-31.865.406a1.554,1.554,0,0,0,1.275.151,2.9,2.9,0,0,0-1.535-.151h0.26Zm-8.132.811a1.3,1.3,0,0,0,.637,0c-0.231-.057.261-0.353-0.492-0.306C250.92,2.969,250.689,3,250.775,3.154Zm7.234,4.829c0.581-.024.175,0.342,0.638,0.36,0.26-.122-0.261-0.307,0-0.458A1.206,1.206,0,0,0,258.009,7.983Zm46.858,0.458c0.753-.11,1.678.214,2.028-0.151C306.082,8.353,304.983,8.058,304.867,8.441Zm12.3,0.1a1.063,1.063,0,0,1,.376.052,0.548,0.548,0,0,0,.261-0.254C317.513,8.233,317.081,8.353,317.167,8.545Zm-54.324.714c0.462,0.2-.145.139-0.116,0.406,0.347,0.174,1.8.081,1.13-.157a2.274,2.274,0,0,1,.376-0.046c-0.059.36,0.984,0.284,1.417,0.458-0.2-.342-1.417-0.464-1.041-0.864A2.569,2.569,0,0,0,262.843,9.258Zm-15.366.2a1.249,1.249,0,0,1,.9,0c0.376-.018.145-0.278,0.521-0.307A1.7,1.7,0,0,0,247.477,9.461Zm9.145,0.712a1.233,1.233,0,0,0,.261-0.359C256.3,9.745,256.187,10.145,256.622,10.174ZM263.365,12a1.128,1.128,0,0,0,.752-0.1,3.614,3.614,0,0,0-1.013-.1C263.219,11.884,263.625,11.9,263.365,12Z"/>
</svg>
